<svg width="279" height="221" viewBox="0 0 279 221" fill="none" xmlns="http://www.w3.org/2000/svg">
<path d="M36.9886 89.9023C36.8339 89.8626 36.6685 89.8186 36.4933 89.7698C35.228 89.4175 33.4613 88.8229 31.4908 87.8607C27.5474 85.9352 22.8517 82.5716 19.6579 76.7809L19.6571 76.7795C16.4958 71.0583 16.4376 65.1788 17.2125 60.6436C17.5991 58.3809 18.1889 56.4831 18.6799 55.1565C18.7352 55.0071 18.7891 54.8653 18.8413 54.7311C18.9024 54.7554 18.9651 54.7806 19.0291 54.8066C20.2074 55.2855 21.8646 56.0556 23.7359 57.2072C27.4798 59.5112 32.044 63.3185 35.379 69.3495C38.6619 75.3058 38.8896 80.8025 38.3108 84.8117C38.0204 86.8236 37.5262 88.4604 37.1098 89.5838C37.0685 89.6952 37.028 89.8014 36.9886 89.9023ZM17.2217 54.1603L17.2213 54.1602L17.2217 54.1603Z" stroke="black" stroke-width="4"/>
<path d="M77.3409 78.7648L77.3412 78.7642C79.9647 72.775 79.4822 66.9151 78.2933 62.471C77.7002 60.2537 76.9382 58.4185 76.3271 57.1429C76.2583 56.9992 76.1915 56.8629 76.1271 56.7341C76.0687 56.7638 76.0088 56.7945 75.9476 56.8263C74.8189 57.4113 73.2401 58.3305 71.483 59.6497C67.9674 62.2891 63.7718 66.5031 61.002 72.8237L77.3409 78.7648ZM77.3409 78.7648C74.688 84.8264 70.3197 88.6065 66.5698 90.885C64.696 92.0235 62.9916 92.7772 61.7643 93.2437C61.5937 93.3086 61.4326 93.3678 61.2818 93.4216M77.3409 78.7648L61.2818 93.4216M61.2818 93.4216C61.233 93.3245 61.1827 93.2221 61.1311 93.1147C60.6127 92.0357 59.9696 90.4532 59.4953 88.4787C58.5503 84.544 58.273 79.0543 61.0018 72.824L61.2818 93.4216Z" stroke="black" stroke-width="4"/>
<path d="M78.8088 94.05C78.8653 94.0107 78.9205 93.9725 78.9745 93.9355C79.0552 94.055 79.1395 94.1817 79.2266 94.3155C79.9991 95.5004 80.9943 97.2206 81.8726 99.3419C83.6328 103.593 84.8795 109.342 83.0678 115.626C81.2304 121.972 77.3916 126.288 73.9685 129.037C72.258 130.41 70.6651 131.381 69.5079 132.004C69.347 132.091 69.1947 132.171 69.052 132.244C68.991 132.154 68.9278 132.059 68.8627 131.959C68.208 130.956 67.364 129.469 66.6363 127.572C65.1861 123.79 64.1953 118.379 66.0881 111.844C68.0065 105.22 71.6139 100.499 74.7531 97.4273C76.322 95.8919 77.7666 94.7762 78.8088 94.05ZM80.4266 93.0224C80.4274 93.022 80.4275 93.0219 80.427 93.0222L80.4266 93.0224Z" stroke="black" stroke-width="4"/>
<path d="M95.5963 119.797C95.5461 119.839 95.4948 119.882 95.4424 119.926C94.4724 120.749 93.1382 121.997 91.7197 123.674C88.8815 127.03 85.7331 132.069 84.4458 138.836L95.5963 119.797ZM95.5963 119.797C95.6874 119.908 95.7824 120.025 95.8811 120.149C96.7606 121.257 97.9119 122.876 98.984 124.906C101.133 128.974 102.91 134.579 101.693 141.002C100.457 147.499 97.0416 152.158 93.8945 155.216C92.322 156.744 90.8289 157.86 89.7367 158.588C89.5855 158.689 89.4422 158.783 89.3077 158.869C89.2391 158.785 89.1678 158.698 89.0942 158.605C88.3491 157.669 87.3703 156.269 86.4685 154.449C84.6715 150.822 83.1776 145.527 84.4458 138.837L95.5963 119.797Z" stroke="black" stroke-width="4"/>
<path d="M111.158 145.397C111.121 145.452 111.084 145.509 111.046 145.567C110.354 146.634 109.436 148.213 108.561 150.228C106.809 154.26 105.245 159.993 105.962 166.849L111.158 145.397ZM111.158 145.397C111.278 145.478 111.403 145.563 111.534 145.654C112.697 146.461 114.267 147.679 115.879 149.313C119.111 152.587 122.43 157.442 123.114 163.946C123.801 170.52 121.87 175.967 119.734 179.804C118.667 181.721 117.557 183.22 116.72 184.234C116.604 184.374 116.493 184.505 116.389 184.626C116.299 184.566 116.206 184.502 116.109 184.435C115.125 183.751 113.784 182.69 112.396 181.206C109.629 178.248 106.674 173.609 105.963 166.85L111.158 145.397ZM112.159 144.004C112.159 144.003 112.159 144.003 112.159 144.003L112.159 144.004Z" stroke="black" stroke-width="4"/>
<path d="M61.2977 42.7775L61.2978 42.7763C61.878 35.9096 60.1993 30.2095 58.3669 26.215C57.4511 24.2186 56.5012 22.6582 55.7876 21.6059C55.7492 21.5492 55.7115 21.4941 55.6745 21.4404C55.5572 21.5227 55.4342 21.6104 55.3061 21.7035C54.1619 22.5345 52.6186 23.786 51.0414 25.4541C47.8805 28.7973 44.6645 33.7229 44.1139 40.2425L61.2977 42.7775ZM61.2977 42.7775C60.7292 49.5516 57.8708 54.2485 55.1655 57.2612C53.808 58.7729 52.4888 59.8598 51.519 60.5628C51.4229 60.6325 51.3303 60.6984 51.2415 60.7604M61.2977 42.7775L51.2415 60.7604M51.2415 60.7604C51.1354 60.6422 51.023 60.5145 50.9051 60.3775C50.0493 59.3835 48.9113 57.9101 47.8076 56.018C45.5988 52.2316 43.5609 46.8315 44.1138 40.2434L51.2415 60.7604Z" stroke="black" stroke-width="4"/>
<path d="M41.1042 119.855C41.0977 119.974 41.0904 120.088 41.0825 120.196C40.9229 120.203 40.7518 120.21 40.5699 120.215C39.2568 120.252 37.393 120.206 35.2262 119.868C30.8899 119.192 25.4107 117.364 20.6512 112.77L20.6507 112.77C15.9446 108.231 14.156 102.628 13.5594 98.0642C13.2617 95.7875 13.2656 93.7998 13.3436 92.3871C13.3524 92.2285 13.3621 92.0773 13.3723 91.9341C13.4372 91.9392 13.5037 91.9448 13.5718 91.9508C14.8382 92.0616 16.6479 92.3098 18.7748 92.8597C23.0301 93.9598 28.5134 96.2556 33.4805 101.04C38.3722 105.757 40.2118 110.94 40.8425 114.941C41.159 116.949 41.1703 118.659 41.1042 119.855Z" stroke="black" stroke-width="4"/>
<path d="M55.3014 149.702C55.2851 149.596 55.2671 149.484 55.2472 149.368C55.0454 148.187 54.654 146.523 53.8989 144.635C52.394 140.875 49.4483 136.23 43.6328 132.717L55.3014 149.702ZM55.3014 149.702C55.148 149.745 54.9833 149.789 54.8078 149.834C53.5353 150.161 51.707 150.529 49.5183 150.681C45.1382 150.985 39.3869 150.421 33.7225 147.009C28.1302 143.63 25.1441 138.564 23.5503 134.247C22.7551 132.093 22.3179 130.153 22.0805 128.758C22.0537 128.601 22.0295 128.451 22.0076 128.308C22.0726 128.298 22.1392 128.289 22.2076 128.28C23.4668 128.106 25.2862 127.945 27.4816 128.008C31.8741 128.133 37.729 129.153 43.6322 132.716L55.3014 149.702Z" stroke="black" stroke-width="4"/>
<path d="M57.5643 160.733L57.566 160.733C64.1781 162.315 68.3883 165.848 70.9563 168.975C72.245 170.545 73.1193 172.012 73.6672 173.077C73.7217 173.182 73.7728 173.284 73.8208 173.381C73.6869 173.469 73.5425 173.562 73.388 173.659C72.2751 174.356 70.6455 175.261 68.6072 176.069C64.5283 177.685 58.8816 178.89 52.4566 177.355C46.1014 175.824 41.7195 171.898 38.8917 168.265C37.4807 166.452 36.4762 164.736 35.8271 163.479C35.7539 163.337 35.6853 163.201 35.6213 163.072C35.6799 163.043 35.7401 163.014 35.8019 162.985C36.9488 162.438 38.6335 161.734 40.7444 161.13C44.9679 159.921 50.8565 159.121 57.5643 160.733Z" stroke="black" stroke-width="4"/>
<path d="M84.2167 185.541L84.2178 185.541C90.972 186.321 95.5736 189.326 98.4963 192.125C99.963 193.529 101.006 194.882 101.677 195.874C101.744 195.973 101.807 196.068 101.867 196.159C101.744 196.262 101.612 196.372 101.47 196.486C100.449 197.312 98.9394 198.404 97.0121 199.449C93.1554 201.54 87.6898 203.408 81.117 202.645C74.6266 201.889 69.8099 198.518 66.5708 195.252C64.9547 193.622 63.7535 192.039 62.9595 190.869C62.8704 190.737 62.7865 190.611 62.7079 190.491C62.7628 190.456 62.8193 190.42 62.8774 190.383C63.9518 189.703 65.5417 188.803 67.5664 187.951C71.6176 186.245 77.3693 184.747 84.2167 185.541Z" stroke="black" stroke-width="4"/>
<path d="M53.7075 71.4524L47.0352 69.3891C46.8167 70.1181 25.6867 142.8 127.276 205.114L130.922 199.167C34.1978 139.826 52.8618 74.2142 53.7075 71.4524Z" fill="black"/>
<path d="M243.612 69.2255L243.612 69.2241C246.939 63.188 251.502 59.3785 255.246 57.0736C257.117 55.9216 258.774 55.1514 259.953 54.6725C260.017 54.6463 260.08 54.6211 260.142 54.5967C260.194 54.7303 260.247 54.8717 260.302 55.0204C260.793 56.3461 261.381 58.2429 261.767 60.5049C262.54 65.0383 262.48 70.9181 259.318 76.6443L259.316 76.6473C256.13 82.4384 251.44 85.8022 247.499 87.7278C245.529 88.69 243.763 89.2847 242.498 89.6369C242.323 89.6858 242.157 89.7299 242.002 89.7697C241.963 89.6684 241.922 89.5618 241.881 89.4499C241.464 88.3267 240.969 86.6901 240.678 84.6789C240.098 80.6707 240.325 75.1766 243.612 69.2255ZM261.761 54.0262C261.762 54.026 261.762 54.0259 261.762 54.0261L261.761 54.0262Z" stroke="black" stroke-width="4"/>
<path d="M202.86 56.6003C202.796 56.7292 202.729 56.8656 202.66 57.0093C202.049 58.2849 201.287 60.1201 200.694 62.3374C199.505 66.7813 199.022 72.6408 201.645 78.6296L202.86 56.6003ZM202.86 56.6003C202.918 56.6301 202.978 56.6609 203.04 56.6927C204.169 57.2777 205.748 58.1967 207.506 59.5156C211.023 62.1542 215.221 66.3665 217.995 72.6833C220.723 78.918 220.446 84.4097 219.5 88.3454C219.026 90.3205 218.383 91.9033 217.864 92.9824C217.813 93.0895 217.763 93.1916 217.714 93.2885C217.563 93.2346 217.403 93.1754 217.232 93.1106C216.005 92.6434 214.3 91.8888 212.425 90.7495C208.674 88.4696 204.304 84.6888 201.646 78.6306L202.86 56.6003ZM203.689 55.087L203.689 55.087L203.689 55.087Z" stroke="black" stroke-width="4"/>
<path d="M199.759 94.1725C199.846 94.0393 199.929 93.913 200.01 93.7939C200.064 93.831 200.119 93.8693 200.176 93.9087C201.219 94.6358 202.665 95.7526 204.235 97.2888C207.376 100.362 210.986 105.084 212.905 111.703C214.797 118.238 213.806 123.649 212.356 127.43C211.628 129.328 210.784 130.815 210.13 131.818C210.065 131.918 210.001 132.013 209.94 132.103C209.798 132.03 209.645 131.95 209.484 131.863C208.327 131.24 206.734 130.269 205.023 128.895C201.599 126.146 197.758 121.83 195.916 115.483C194.109 109.2 195.355 103.451 197.115 99.1995C197.993 97.0779 198.987 95.3575 199.759 94.1725Z" stroke="black" stroke-width="4"/>
<path d="M189.679 158.743C189.545 158.657 189.402 158.564 189.251 158.463C188.159 157.733 186.668 156.617 185.096 155.088C181.951 152.028 178.538 147.367 177.302 140.87C176.08 134.446 177.857 128.841 180.007 124.773C181.08 122.744 182.232 121.125 183.112 120.017C183.211 119.893 183.306 119.775 183.398 119.663C183.448 119.705 183.499 119.748 183.551 119.792C184.52 120.614 185.854 121.862 187.271 123.539C190.108 126.896 193.257 131.94 194.546 138.722C195.815 145.407 194.32 150.699 192.521 154.324C191.618 156.143 190.638 157.543 189.893 158.479C189.819 158.572 189.747 158.66 189.679 158.743Z" stroke="black" stroke-width="4"/>
<path d="M167.838 145.249C167.718 145.329 167.592 145.415 167.461 145.506C166.298 146.313 164.727 147.532 163.113 149.167C159.878 152.444 156.557 157.3 155.873 163.804L167.838 145.249ZM167.838 145.249C167.874 145.303 167.91 145.359 167.947 145.416C168.638 146.483 169.555 148.062 170.428 150.078C172.177 154.11 173.739 159.846 173.025 166.708L167.838 145.249ZM162.26 184.092C162.376 184.232 162.487 184.364 162.591 184.485C162.682 184.424 162.777 184.36 162.875 184.292C163.859 183.61 165.202 182.552 166.591 181.069C169.359 178.114 172.316 173.476 173.025 166.708L162.26 184.092ZM162.26 184.092C161.424 183.079 160.315 181.581 159.249 179.665M162.26 184.092L159.249 179.665M159.249 179.665C157.115 175.83 155.186 170.384 155.873 163.805L159.249 179.665Z" stroke="black" stroke-width="4"/>
<path d="M217.694 42.6448L217.694 42.6437C217.113 35.7774 218.794 30.0758 220.629 26.0793C221.546 24.082 222.497 22.5207 223.212 21.4676C223.251 21.4103 223.289 21.3545 223.326 21.3003C223.444 21.3826 223.567 21.4704 223.695 21.5635C224.839 22.3946 226.382 23.6462 227.958 25.3147C231.118 28.6585 234.332 33.5859 234.877 40.1093L234.877 40.1102C235.431 46.6931 233.39 52.0922 231.176 55.8794C230.071 57.7718 228.93 59.2457 228.073 60.2402C227.954 60.3779 227.841 60.5062 227.734 60.625C227.646 60.5633 227.554 60.4978 227.459 60.4285C226.491 59.7258 225.173 58.6394 223.818 57.1281C221.117 54.1163 218.262 49.4198 217.694 42.6448Z" stroke="black" stroke-width="4"/>
<path d="M265.423 91.8184C265.492 91.8124 265.559 91.8068 265.625 91.8015C265.635 91.9453 265.645 92.0969 265.654 92.256C265.732 93.6687 265.737 95.6564 265.44 97.933C264.844 102.496 263.056 108.099 258.346 112.637L258.345 112.637C253.581 117.231 248.102 119.06 243.766 119.736C241.6 120.073 239.737 120.12 238.425 120.083C238.243 120.078 238.073 120.071 237.913 120.063C237.905 119.955 237.898 119.842 237.892 119.723C237.825 118.527 237.836 116.816 238.152 114.809C238.782 110.807 240.62 105.624 245.507 100.906C250.474 96.1224 255.959 93.8268 260.217 92.7269C262.344 92.1772 264.155 91.9291 265.423 91.8184Z" stroke="black" stroke-width="4"/>
<path d="M256.787 128.139C256.855 128.148 256.922 128.158 256.987 128.167C256.965 128.31 256.941 128.461 256.914 128.619C256.676 130.014 256.238 131.954 255.443 134.109C253.848 138.427 250.859 143.493 245.264 146.866C239.603 150.279 233.853 150.846 229.473 150.544C227.285 150.394 225.457 150.027 224.184 149.7C224.009 149.655 223.844 149.611 223.691 149.569C223.707 149.462 223.725 149.351 223.745 149.234C223.946 148.053 224.337 146.388 225.092 144.5C226.596 140.737 229.542 136.089 235.363 132.567C241.266 129.008 247.12 127.991 251.513 127.866C253.708 127.803 255.527 127.965 256.787 128.139Z" stroke="black" stroke-width="4"/>
<path d="M221.432 160.584L221.432 160.584C228.144 158.973 234.033 159.773 238.256 160.981C240.366 161.586 242.05 162.289 243.196 162.836C243.257 162.865 243.317 162.894 243.376 162.923C243.312 163.052 243.243 163.188 243.17 163.33C242.521 164.587 241.516 166.303 240.105 168.115C237.278 171.747 232.896 175.671 226.541 177.198L226.54 177.198C220.108 178.745 214.458 177.546 210.378 175.932C208.34 175.125 206.71 174.222 205.597 173.525C205.443 173.428 205.299 173.336 205.165 173.248C205.214 173.151 205.265 173.049 205.319 172.943C205.868 171.878 206.744 170.409 208.034 168.838C210.605 165.707 214.819 162.17 221.432 160.584Z" stroke="black" stroke-width="4"/>
<path d="M177.138 196.029C177.261 196.132 177.393 196.242 177.535 196.357C178.556 197.183 180.066 198.276 181.992 199.322C185.848 201.414 191.31 203.286 197.876 202.531C204.373 201.763 209.191 198.388 212.429 195.12C214.044 193.49 215.245 191.907 216.038 190.737C216.127 190.606 216.21 190.481 216.288 190.361C216.233 190.326 216.177 190.29 216.119 190.253C215.043 189.574 213.452 188.674 211.426 187.822C207.372 186.117 201.618 184.618 194.771 185.409L177.138 196.029ZM177.138 196.029C177.197 195.938 177.26 195.843 177.327 195.744C177.997 194.753 179.039 193.401 180.504 191.997C183.423 189.199 188.02 186.194 194.77 185.409L177.138 196.029Z" stroke="black" stroke-width="4"/>
<path d="M225.275 71.3181L231.965 69.2575C232.183 69.9865 253.313 142.668 151.717 204.973L148.079 199.027C244.784 139.7 226.123 74.0713 225.275 71.3181Z" fill="black"/>
<path d="M106.062 34.1562V99H113.191V27.5156H106.893L94.832 32.3984L96.9805 38.0625L106.062 34.1562ZM152.369 64.0391C148.691 66.2526 145.842 68.8893 143.824 71.9492C141.806 75.0091 140.797 78.0527 140.797 81.0801C140.797 82.903 141.139 84.6445 141.822 86.3047C142.538 87.9648 143.531 89.446 144.801 90.748C146.103 92.0176 147.747 93.043 149.732 93.8242C151.751 94.5729 153.98 94.9473 156.422 94.9473C158.375 94.9473 160.296 94.638 162.184 94.0195C164.072 93.401 165.781 92.5384 167.311 91.4316C168.873 90.2923 170.126 88.8275 171.07 87.0371C172.047 85.2142 172.535 83.2122 172.535 81.0312C172.535 79.5339 172.324 78.1504 171.9 76.8809C171.51 75.6113 171.005 74.5046 170.387 73.5605C169.768 72.584 168.922 71.6725 167.848 70.8262C166.773 69.9798 165.732 69.2637 164.723 68.6777C163.746 68.0592 162.477 67.457 160.914 66.8711C159.384 66.2526 158.017 65.7643 156.812 65.4062C155.641 65.0156 154.16 64.5599 152.369 64.0391ZM133.082 81.8613C133.082 74.1139 137.835 67.4733 147.34 61.9395C145.777 61.2233 144.296 60.377 142.896 59.4004C141.497 58.4238 140.097 57.252 138.697 55.8848C137.298 54.5176 136.174 52.9225 135.328 51.0996C134.514 49.2441 134.107 47.291 134.107 45.2402C134.107 43.3522 134.319 41.5781 134.742 39.918C135.198 38.2578 135.816 36.793 136.598 35.5234C137.379 34.2214 138.323 33.0495 139.43 32.0078C140.536 30.9661 141.741 30.0872 143.043 29.3711C144.378 28.6549 145.794 28.0527 147.291 27.5645C148.821 27.0762 150.383 26.7181 151.979 26.4902C153.574 26.2624 155.217 26.1484 156.91 26.1484C159.352 26.1484 161.646 26.3763 163.795 26.832C165.976 27.2878 168.01 28.0202 169.898 29.0293C171.786 30.0384 173.398 31.2754 174.732 32.7402C176.1 34.2051 177.174 36.0117 177.955 38.1602C178.736 40.3086 179.127 42.7012 179.127 45.3379C179.127 47.584 178.622 49.7324 177.613 51.7832C176.637 53.8014 175.383 55.5104 173.854 56.9102C172.324 58.2773 170.842 59.4167 169.41 60.3281C168.01 61.207 166.676 61.8743 165.406 62.3301C167.848 63.502 169.931 64.7227 171.656 65.9922C173.414 67.2292 174.798 68.4173 175.807 69.5566C176.848 70.696 177.662 71.9492 178.248 73.3164C178.867 74.6836 179.273 75.9694 179.469 77.1738C179.664 78.3457 179.762 79.6803 179.762 81.1777C179.762 83.196 179.42 85.1328 178.736 86.9883C178.085 88.8438 177.076 90.569 175.709 92.1641C174.342 93.7591 172.714 95.1589 170.826 96.3633C168.938 97.5352 166.692 98.4629 164.088 99.1465C161.516 99.8301 158.717 100.172 155.689 100.172C152.304 100.172 149.163 99.6673 146.266 98.6582C143.401 97.6491 141.008 96.2982 139.088 94.6055C137.2 92.9128 135.719 90.9759 134.645 88.7949C133.603 86.5814 133.082 84.2702 133.082 81.8613ZM160.084 60.3281C167.896 56.4219 171.803 51.3926 171.803 45.2402C171.803 42.9616 171.396 40.9434 170.582 39.1855C169.801 37.3952 168.71 35.9629 167.311 34.8887C165.943 33.8145 164.381 33.0169 162.623 32.4961C160.865 31.9427 158.961 31.666 156.91 31.666C155.38 31.666 153.883 31.8125 152.418 32.1055C150.986 32.3984 149.602 32.8867 148.268 33.5703C146.933 34.2539 145.761 35.1003 144.752 36.1094C143.775 37.1185 142.978 38.4043 142.359 39.9668C141.773 41.4967 141.48 43.2057 141.48 45.0938C141.48 46.1029 141.594 47.0632 141.822 47.9746C142.05 48.8535 142.327 49.651 142.652 50.3672C142.978 51.0833 143.466 51.7832 144.117 52.4668C144.768 53.1504 145.37 53.7363 145.924 54.2246C146.477 54.7129 147.242 55.2174 148.219 55.7383C149.228 56.2591 150.074 56.6823 150.758 57.0078C151.474 57.3333 152.467 57.7402 153.736 58.2285C155.006 58.6842 156.015 59.0423 156.764 59.3027C157.545 59.5306 158.652 59.8724 160.084 60.3281Z" fill="black"/>
</svg>
